<svg xmlns="http://www.w3.org/2000/svg" width="128" height="128" viewBox="0 0 1050 1050">
<defs><linearGradient id="g" x1="115" y1="85" x2="935" y2="970" gradientUnits="userSpaceOnUse">
<stop offset="0" stop-color="#b32cff"/><stop offset=".52" stop-color="#5579ff"/><stop offset="1" stop-color="#00ded3"/>
</linearGradient></defs>
<path d="M708,357 L694,363 L685,372 L678,384 L678,778 L685,791 L699,802 L705,805 L725,805 L736,803 L752,789 L759,778 L759,383 L751,371 L742,363 L727,357ZM366,365 L354,377 L336,416 L208,735 L197,769 L199,779 L204,789 L214,799 L234,805 L251,804 L266,797 L274,789 L282,774 L307,711 L311,705 L502,704 L506,707 L530,766 L541,788 L552,799 L561,803 L588,805 L597,802 L607,795 L616,783 L618,758 L465,381 L450,365 L433,358 L383,358ZM408,461 L415,469 L476,628 L471,630 L343,630 L341,626 L396,483 L405,463ZM1002,339 L999,340 L992,353 L975,366 L976,369 L993,381 L998,393 L1001,395 L1005,392 L1011,380 L1028,368 L1025,363 L1017,359 L1011,353ZM102,108 L67,142 L40,181 L21,222 L15,240 L9,270 L7,495 L7,762 L9,829 L16,862 L30,899 L46,928 L70,960 L92,982 L115,1000 L136,1013 L163,1026 L189,1035 L216,1041 L270,1043 L778,1042 L809,1036 L852,1020 L888,999 L916,976 L943,947 L964,915 L982,876 L993,835 L996,684 L994,474 L989,467 L980,459 L971,456 L958,456 L950,459 L938,472 L935,483 L932,802 L926,842 L920,861 L909,885 L889,915 L866,939 L835,961 L797,977 L775,982 L754,984 L233,984 L192,973 L163,959 L138,941 L113,916 L99,898 L83,868 L75,846 L67,813 L68,291 L72,261 L81,235 L95,207 L112,184 L128,168 L146,154 L178,137 L209,127 L255,124 L642,122 L651,118 L662,107 L665,100 L665,81 L659,70 L642,58 L211,60 L181,67 L156,76 L130,89ZM857,10 L854,11 L849,18 L838,70 L828,99 L816,122 L800,144 L776,167 L748,185 L721,196 L676,208 L670,212 L670,216 L676,221 L713,230 L738,239 L763,252 L788,271 L808,293 L821,313 L836,347 L849,397 L853,403 L860,404 L865,397 L875,357 L889,322 L904,297 L916,282 L941,259 L960,247 L992,233 L1041,219 L1044,214 L1042,210 L995,197 L964,184 L938,167 L916,146 L899,123 L886,98 L876,70 L866,22 L863,14ZM1001,5 L992,22 L971,37 L973,40 L985,46 L993,54 L999,66 L1003,68 L1012,52 L1033,37 L1017,27 L1010,19 L1005,8Z" fill="url(#g)" fill-rule="evenodd"/>
</svg>